<svg width="263" height="265" viewBox="0 0 263 265" fill="none" xmlns="http://www.w3.org/2000/svg"><path d="M209.427 27.643c28.28 23.386 45.702 54.117 49.492 90.87 1.123 14.524.038 29.372-3.625 43.5a354 354 0 0 1-3.437-2.812l-1.934-1.583c-1.629-1.605-1.629-1.605-2.629-4.605.07-1.993.07-1.993.34-4.23l.254-2.193.344-2.764 1.062-8.813-23-1v8l-9-2v-6l-31 1-1 6-9 2v-9h-42v57h3c.125 6.75.125 6.75-1 9h-2l1 49 8-5c1.645-.72 3.302-1.416 5-2q2.19 2.655 4.375 5.313l2.46 2.988c2.165 2.699 2.165 2.699 4.165 5.699-31.001 7.976-65.956 2.783-93.667-13.153-6.906-4.089-13.266-8.574-19.333-13.847l-2.516-2.148C18.701 204.941 3.231 174.202.294 141.013c-2.252-35.86 8.431-68.768 31.605-96.285C48.805 25.561 69.684 12.081 94.294 5.013l2.194-.637c38.757-10.709 81.498-1.316 112.939 23.266m-97.188-9.824c-9.525 9.832-19.945 28.319-19.945 42.195h33v-50c-4.856 0-9.572 4.745-13.055 7.805m22.055-7.805v50h33c-1.38-6.208-2.77-11.606-5.187-17.376l-.93-2.227c-4.868-11.338-11.8-23.24-22.883-29.397zM79.11 31.198l-2.816 2.816-2.473 2.472c-6.294 6.64-12.604 14.76-15.527 23.528h24l4-11.062c4.324-11.715 9.54-22.257 16-32.938-8.28 0-17.514 9.683-23.184 15.184m78.184-15.184c1.55 3.242 3.37 6.25 5.25 9.313 5.8 9.9 9.539 20.574 12.988 31.492.565 2.143.565 2.143 1.762 3.194q2.564.122 5.129.099l3.135-.01 3.298-.025 3.311-.014q4.065-.02 8.127-.05c-3.78-17.251-22.215-32.431-36.238-41.436-3.167-1.967-3.167-1.967-6.762-2.564m27 7 2.5 2.938c.55.644 1.098 1.29 1.664 1.956a143 143 0 0 0 3.734 4.118c6.154 6.58 11.768 14.19 15.153 22.597 1.094 2.54 1.666 3.794 3.949 5.39 5.416.675 10.574.46 16 0-3.229-5.733-7.535-10.21-12-15l-1.805-2.04c-7.482-8.08-17.564-14.66-27.195-19.96zm-113 1c-7.673 3.93-14.39 9.528-21 15l-2.574 2c-2.21 1.822-4.014 3.634-5.864 5.813l-1.78 2.09-1.782 2.096-1.78 2.005-1.657 1.87-1.497 1.68c-1.264 1.415-1.264 1.415-1.066 3.446 5.322 1.01 10.805 1.968 16 0 4.255-3.983 6.468-9.707 8.928-14.894 2.315-4.55 5.726-8.291 9.072-12.106l2.05-2.38a510 510 0 0 1 4.95-5.62zm-46 45c-9.439 17.576-16 35.82-16 55.999h24l.75-9.312c1.467-16.181 5.165-31.29 10.25-46.687zm28 0c-3.743 10.582-7.276 20.904-9.375 31.937l-.47 2.428c-1.274 7.166-1.722 14.376-2.155 21.634q6.81.037 13.617.055l4.636.02c2.216.013 4.433.018 6.65.023l2.105.015c1.664 0 3.33-.051 4.992-.113 1.771-1.771 1.278-4.374 1.395-6.781l.201-3.709.106-1.983c.803-14.732 2.73-28.976 5.298-43.527zm36 0c-1.89 7.563-3.613 14.712-4.625 22.374l-.378 2.795c-1.305 10.26-1.662 20.497-1.997 30.83h43v-56zm45 0v55.999h42c.054-15.26.054-15.26-1.312-30.25l-.358-2.867c-1.022-7.78-2.672-15.147-4.33-22.883zm45 0 .813 4.874c2.596 16.954 4.408 33.992 5.187 51.125h32c0-6.71-.132-12.82-1.125-19.375l-.387-2.567c-1.927-11.787-5.145-23.37-10.488-34.058zm36 0 .516 1.879q.786 2.874 1.562 5.754.925 3.375 1.906 6.733c3.893 13.685 5.602 27.49 7.016 41.633h24c-1.462-15.718-4.164-30.11-10.543-44.655-1.457-3.345-1.457-3.345-2.32-6.065-1.025-2.562-1.963-3.6-4.137-5.28-2.07-.497-2.07-.497-4.316-.474l-2.46-.056c-3.758.043-7.477.25-11.224.53m-206 64.999c.604 20.742 6.4 38.645 16 57h19l-2.812-9.062c-4.026-13.335-6.418-26.263-7.542-40.147l-.216-2.627c-.06-.779-.12-1.558-.18-2.36-.068-1.823-.068-1.823-1.25-2.804a92 92 0 0 0-5.129-.098l-3.135.01-3.298.025-3.31.014q-4.065.019-8.128.049m33 0c-.128 11.464-.128 11.464 1.125 22.625l.385 2.225c2.036 10.968 5.35 21.801 9.49 32.15h27c-1.27-8.152-1.27-8.152-2.543-16.302a276 276 0 0 1-3.062-31.852l-.114-2.592-.092-2.334c-.082-2.003-.082-2.003-1.189-3.92zm40 1c-.06 12.249 1.138 24.333 2.938 36.438l.514 3.46a130 130 0 0 0 3.548 16.102h36c.02-7.278.041-14.555.052-21.833q.008-5.082.023-10.166.018-5.826.023-11.653l.015-3.697v-3.397l.007-3.008c.132-2.216.132-2.216-1.12-3.246-3.018-.101-6.013-.14-9.031-.133l-2.746-.003q-2.88 0-5.76.006-4.425.006-8.85-.007-2.79 0-5.582.004l-2.692-.006c-3.987-.387-3.987-.387-7.339 1.139m-50 65c3.223 5.732 7.538 10.213 12 15l1.652 1.852c6.638 7.127 15.734 13.672 24.348 18.148l2-1-2.055-2.281c-6.437-7.295-11.832-14.857-16.85-23.188-.37-.603-.739-1.207-1.119-1.83-.976-1.701-.976-1.701-2.246-4.649-1.697-2.481-1.697-2.481-5.523-2.54q-2.198.051-4.394.177l-2.272.068q-2.77.095-5.54.243m26 0c3.603 7.536 7.538 13.67 13 20l2.164 2.57c7.46 8.619 16.373 16.62 26.836 21.43l2-1-1.504-2.281c-7.51-11.744-12.98-23.915-16.77-37.34-.502-2.311-.502-2.311-1.726-3.379q-2.672-.12-5.348-.098l-3.27.01-3.444.025-3.456.014q-4.24.019-8.482.049m34 0c2.27 15.885 10.722 34.641 23.406 44.957 4.398 3.187 4.398 3.187 9.594 4.043v-49zm-20 35 2 2v-2z" fill="#000"/><path d="M237.295 156.014c14.054 10.938 22.366 24.3 25 42 1.373 16.76-2.932 31.431-13.187 44.75-11.016 12.805-26.084 19.945-42.813 21.535-17.948.55-33.024-6.208-46.05-18.168-11.707-11.956-16.328-27.006-16.251-43.318.381-16.32 6.741-29.399 18.301-40.799l1.934-1.965c19.783-18.795 51.12-18.709 73.066-4.035m-74.781 18.121c-8.352 11.612-11.514 24.975-9.531 39.066 1.859 9.346 5.285 16.474 11.312 23.813a206 206 0 0 0 13.67-12.524l1.894-1.885q3.063-3.051 6.12-6.107l4.274-4.264q4.46-4.45 8.914-8.907 5.721-5.72 11.457-11.426 4.406-4.392 8.804-8.791a2100 2100 0 0 1 4.228-4.215q2.944-2.933 5.875-5.874l1.78-1.763c3.008-2.629 3.008-2.629 3.984-6.244-24.077-16.907-53.643-13.67-72.781 9.121m78.781-1.121-70 70c8.82 8.82 19.373 12.136 31.688 12.375 14.562-.044 26.365-5.717 37.062-15.437 10.503-11.013 13.91-24.866 13.563-39.606-.518-9.789-3.947-18.839-10.313-26.332z" fill="#000"/></svg>